<svg viewBox="0 0 280 280" xmlns="http://www.w3.org/2000/svg" width="1024" height="1024">
  <defs>
    <radialGradient id="starGlowC" cx="50%" cy="50%" r="50%">
      <stop offset="0%" stop-color="#FFE066"/>
      <stop offset="55%" stop-color="#D4A017"/>
      <stop offset="100%" stop-color="#B8860B"/>
    </radialGradient>
    <radialGradient id="starHaloC" cx="50%" cy="50%" r="50%">
      <stop offset="0%" stop-color="rgba(212,160,23,0.35)"/>
      <stop offset="100%" stop-color="rgba(212,160,23,0)"/>
    </radialGradient>
  </defs>

  <!-- 深色背景 -->
  <rect width="280" height="280" rx="56" fill="#1C1C1C"/>

  <!-- T 字母（白色） -->
  <path d="M64 58 L148 58 L148 78 L114 78 L114 186 L90 186 L90 78 L64 78 Z" fill="#FFFFFF"/>

  <!-- L 字母（白色） -->
  <path d="M122 98 L122 186 L202 186 L202 206 L98 206 L98 98 Z" fill="#FFFFFF"/>

  <!-- 琥珀星 ✦ -->
  <g transform="translate(192, 44)">
    <circle cx="22" cy="22" r="32" fill="url(#starHaloC)"/>
    <path d="M22 0 L26.5 15 L42 18 L29 29 L32 45 L22 37 L12 45 L15 29 L2 18 L17.5 15 Z"
          fill="url(#starGlowC)"
          transform="scale(0.85) translate(3.3, 3.3)"/>
  </g>
</svg>
